<?xml version="1.0" encoding="UTF-8" standalone="no"?>
<svg
   xmlns:dc="http://purl.org/dc/elements/1.1/"
   xmlns:cc="http://creativecommons.org/ns#"
   xmlns:rdf="http://www.w3.org/1999/02/22-rdf-syntax-ns#"
   xmlns:svg="http://www.w3.org/2000/svg"
   xmlns="http://www.w3.org/2000/svg"
   viewBox="0 0 425 259.07999"
   height="259.07999"
   width="425"
   xml:space="preserve"
   id="svg2"
   version="1.1"><metadata
     id="metadata8"><rdf:RDF><cc:Work
         rdf:about=""><dc:format>image/svg+xml</dc:format><dc:type
           rdf:resource="http://purl.org/dc/dcmitype/StillImage" /></cc:Work></rdf:RDF></metadata><defs
     id="defs6" /><g
     transform="matrix(1.3333333,0,0,-1.3333333,0,259.08)"
     id="g10"><g
       transform="scale(0.1)"
       id="g12"><path
         id="path14"
         style="fill:#ffffff;fill-opacity:1;fill-rule:evenodd;stroke:none"
         d="m 2552.81,892.48 v 103.34 l -337.83,163.4 -131.14,-42.06 0.11,-115.93 131.03,37.66 337.83,-146.41" /><path
         id="path16"
         style="fill:#ffffff;fill-opacity:1;fill-rule:evenodd;stroke:none"
         d="M 529.512,781.289 210.699,653.789 V 599.5 l 318.813,116.891 v 64.898" /><path
         id="path18"
         style="fill:#ffffff;fill-opacity:1;fill-rule:evenodd;stroke:none"
         d="M 794.734,887.039 615.09,815.219 v 68.23 l 179.644,77.844 z m 0,-145.41 -179.644,-60.02 v 66.2 l 179.644,65.863 z m 0,-149.609 -179.644,-47.879 v 68.39 l 179.644,53.918 z m 0,-146.872 -179.644,-35.957 v 67.36 l 179.644,41.91 z m 0,-148.187 -179.644,-23.93 v 67.93 l 179.644,29.937 z m 0,-146.652 -179.644,-12.028 v 67.207 l 179.644,17.973 z m -319.515,356.851 -51.508,-13.91 -0.066,59.59 51.574,15.422 z m 0,-94.769 -51.574,-11.129 v 61.297 l 51.574,13.011 z m 0,-94.61 -51.574,-8.601 v 61.308 l 51.574,10.301 z m 0,-94.793 -51.574,-5.957 v 61.379 l 51.574,7.738 z m -90.961,259.864 -45.719,-12.153 -0.023,58.531 45.742,13.692 z m 0,-90.192 -45.649,-9.859 -0.078,58.597 45.727,11.461 z m 0,-90.191 -46.809,-7.731 v 58.563 l 46.809,9.371 z m 0,-90.098 -46.809,-5.473 v 58.59 l 46.809,7 z M 301.527,460.77 258.801,449.422 v 55.93 l 42.726,12.769 z m 0,-85.95 -42.726,-9.269 v 55.84 l 42.726,10.718 z m 0,-86.07 -42.726,-7.148 V 337.5 l 42.726,8.621 z m 0,-86.02 -42.726,-5.039 v 55.989 l 42.726,6.441 z m -73.992,238.34 -39.183,-10.488 v 53.598 l 39.183,11.769 z m 0,-82.289 -39.183,-8.511 v 53.57 l 39.183,9.609 z m 0,-82.293 -39.183,-6.476 v 53.418 l 39.183,7.89 z m 0,-82.347 -39.183,-4.551 v 53.531 l 39.183,5.867 z m 2787.445,-80.52 v 100.738 l -95.02,12.672 v -113.41 h -11.29 v 114.918 l -108.54,14.481 0.01,-129.399 h -12.93 V 711.68 L 2677.02,692.969 V 113.621 h -29.64 v 182.43 L 2535.1,312.879 V 113.621 h -16.78 v 201.777 l -127.3,19.114 V 113.621 h -19.47 v 53.32 170.5 l -145.91,21.891 v -181.633 -56.801 -7.277 h -20.05 v 880.387 l -134.11,-36.973 -1.17,-843.414 H 1079.59 V 949.883 L 857.102,1017.05 V 113.621 H 837.09 V 1017.05 L 572.945,898.398 V 113.621 H 531.277 V 684.629 L 144.344,549.102 144.262,113.621 H 113.617 C 50.8672,113.621 -0.00390625,62.75 -0.00390625,0 V 0 H 3187.49 v 0 c 0,62.75 -50.87,113.621 -113.61,113.621 h -58.9" /><path
         id="path20"
         style="fill:#ffffff;fill-opacity:1;fill-rule:evenodd;stroke:none"
         d="m 1079.38,985.273 0.21,60.707 -233.18,88.43 -217.847,-108.62 v -68.259 l 217.832,101.039 232.985,-73.297" /><path
         id="path22"
         style="fill:#ffffff;fill-opacity:1;fill-rule:evenodd;stroke:none"
         d="m 2371.55,933.051 -145.91,60.957 V 716.641 l 145.91,-43.852 v 260.262" /><path
         id="path24"
         style="fill:#ffffff;fill-opacity:1;fill-rule:evenodd;stroke:none"
         d="m 2225.64,398.969 145.91,-24.309 v 260.93 l -145.91,41.351 V 398.969" /><path
         id="path26"
         style="fill:#ffffff;fill-opacity:1;fill-rule:evenodd;stroke:none"
         d="m 2518.32,872.09 -127.3,53.07 V 667.02 l 127.3,-38.239 V 872.09" /><path
         id="path28"
         style="fill:#ffffff;fill-opacity:1;fill-rule:evenodd;stroke:none"
         d="M 2647.38,818.359 2535.1,865.121 V 623.738 l 112.28,-33.699 v 228.32" /><path
         id="path30"
         style="fill:#ffffff;fill-opacity:1;fill-rule:evenodd;stroke:none"
         d="m 2391.02,371.422 127.3,-21.192 V 594 l -127.3,36.082 v -258.66" /><path
         id="path32"
         style="fill:#ffffff;fill-opacity:1;fill-rule:evenodd;stroke:none"
         d="m 2535.1,347.41 112.28,-18.73 V 557.391 L 2535.1,589.16 V 347.41" /><path
         id="path34"
         style="fill:#ffffff;fill-opacity:1;fill-rule:evenodd;stroke:none"
         d="m 3014.98,426.719 -95.02,25.312 V 255.129 l 95.02,-14.207 v 185.797" /><path
         id="path36"
         style="fill:#ffffff;fill-opacity:1;fill-rule:evenodd;stroke:none"
         d="m 2908.67,483.371 v 185.731 l -108.57,42.628 0.02,-197.621 108.55,-30.738" /><path
         id="path38"
         style="fill:#ffffff;fill-opacity:1;fill-rule:evenodd;stroke:none"
         d="m 3014.98,627.352 -95.02,37.32 v -184.5 l 95.02,-26.91 v 174.09" /><path
         id="path40"
         style="fill:#ffffff;fill-opacity:1;fill-rule:evenodd;stroke:none"
         d="m 2908.67,256.832 v 198.207 l -108.55,28.902 0.01,-210.871 108.54,-16.238" /><path
         id="path42"
         style="fill:#ffffff;fill-opacity:1;fill-rule:evenodd;stroke:none"
         d="m 2794.23,809.07 -118.31,-22.8 v -68.938 l 118.31,20.797 189.43,-76.949 v 63.531 l -189.43,84.359" /><path
         id="path44"
         style="fill:#ffffff;fill-opacity:1;fill-rule:nonzero;stroke:none"
         d="m 1549.22,1034.31 c -17.75,8.33 -30.85,9.75 -47.45,11.56 -22.73,2.47 -51.03,5.55 -96.85,27.68 -76.5,36.97 -210.59,163.16 -272.41,239.04 L 873.109,1151.66 1103.97,1060.9 v -14.92 -9.65 -334.31 l 0.25,-0.411 c 0,0 353.77,285.079 426.11,313.181 4.33,-0.6 21.1,2.24 41,6.05 -10.44,6.89 -18.06,11.57 -22.11,13.47" /><path
         id="path46"
         style="fill:#ffffff;fill-opacity:1;fill-rule:nonzero;stroke:none"
         d="m 1947.83,1293.63 c -18.56,9.37 -33.68,23.92 -44.32,41.5 -30.8,-10.69 -63.87,-18.74 -100.32,-20.67 -40.03,0 -72.86,13.36 -87.82,35.74 -8.46,12.64 -10.64,27.49 -6.38,42.4 -2.31,-0.15 -4.65,-0.37 -6.89,-0.37 -41.33,0 -73.53,22.8 -86.16,61 -6.39,19.33 -6.16,38.32 -0.42,52.11 -19.48,6.25 -36.15,24.16 -44.49,49.42 -10.66,32.24 -4.26,62.92 16.29,78.15 5.91,4.39 18.39,10.73 35.12,18.3 -19.31,6.36 -35.48,20.83 -43.82,40.47 -10.08,23.71 -6.11,49.05 10.35,66.11 2.8,2.91 6.72,6.49 11.59,10.69 -28.62,6.79 -56.64,15.22 -83,23.23 -6.08,1.84 -12.07,3.65 -18.01,5.43 -24.73,6.79 -47.11,12.28 -65.68,15.47 -9.16,1.37 -17.77,2.64 -25.95,3.85 l -0.26,0.03 0.01,0.01 c -30.12,4.46 -52.67,7.81 -60.54,8.98 -2.75,0.41 -5.78,0.6 -9.04,0.6 -38.09,0 -107.82,-26.73 -126.31,-56.76 -20.08,-32.58 30.93,-65.55 0.17,-101.64 -36.28,-4.79 -91.16,-32.22 -73.67,-85.62 25.41,-34.26 26.7,-59.85 26.7,-59.85 -65.06,-7.97 -52.78,-69.8 -28.28,-105.05 12.71,-17.13 -34.99,-30.38 -1.11,-76.06 54.96,-74.09 202.17,-212.89 278.04,-249.54 75.86,-36.65 96.58,-16.86 144.08,-39.15 47.51,-22.28 483.63,-350.801 483.63,-350.801 v 247.422 23.157 17.117 l 15.25,4.375 v 115.33 16.95 12.31 l 120.59,39.49 -229.35,115.87" /><path
         id="path48"
         style="fill:#ffffff;fill-opacity:1;fill-rule:nonzero;stroke:none"
         d="m 1975.53,1630.51 -0.36,-0.19 c -3.39,-1.64 -11.68,-5.62 -15.51,-6.87 -62.17,-20.36 -311.31,-115.53 -321.88,-119.56 0,0 -3.92,-1.05 -7.02,-1.15 -15.05,-26.51 5.24,-108.88 91.62,-93.65 42.21,9.05 180.44,59.28 186.82,62.07 27.11,11.81 51.43,23.09 70.99,31.82 53.99,24.08 44.73,123.67 -4.66,127.53" /><path
         id="path50"
         style="fill:#ffffff;fill-opacity:1;fill-rule:nonzero;stroke:none"
         d="m 1976.5,1478.12 c -3.6,0.53 -13.86,-1.82 -28.21,-6 -39.09,-19.2 -159.29,-61 -211.16,-74.84 -3.33,-1.05 -5.68,-1.74 -6.66,-1.92 -2.69,-1 -4.58,-1.68 -5.33,-1.92 -15.84,-38.3 27.42,-66.93 87.09,-63.73 46.1,3.21 111.04,29.27 143.09,39.77 32.04,10.49 41.07,105.69 21.18,108.64" /><path
         id="path52"
         style="fill:#ffffff;fill-opacity:1;fill-rule:nonzero;stroke:none"
         d="m 1921.59,1750.09 c 0,0 -7.76,-2.77 -20.76,-7.46 l -0.27,-0.13 -0.51,-0.19 c -42.16,-16.04 -281.39,-102.11 -303.8,-121.44 -32.67,-24.24 -8.7,-103.14 34.35,-103.14 0.59,0 1.22,0.13 1.82,0.16 10.91,4.17 260.07,99.34 322.57,119.81 3.26,1.07 13.61,6.11 13.61,6.11 42.51,38.21 9.47,104.54 -47.01,106.28" /><path
         id="path54"
         style="fill:#ffffff;fill-opacity:1;fill-rule:nonzero;stroke:none"
         d="m 1856.47,1907.87 c -3.94,0 -7.95,-0.37 -12.05,-1.14 -7.27,-1.37 -17.84,-5.71 -30.35,-11.94 26.75,-6.82 43.41,-16.62 43.31,-36.46 -0.23,-42.71 -34.76,-72.16 -64.26,-84.4 -26.63,-12.58 -57.4,-18.82 -93.52,-18.82 -26.66,0 -53.78,3.78 -80.56,9.31 -8.49,-6.95 -15.22,-12.85 -19.27,-17.04 -28.29,-29.33 -1.8,-84.81 44.78,-84.81 2.87,0 5.79,0.21 8.79,0.64 3.67,0.54 8.14,1.5 13.15,2.79 1.43,0.36 2.85,0.84 4.21,1.41 74.46,31.62 178.25,71.5 224.02,88.91 14.31,6.67 24.56,11.75 28.59,14.23 43.56,26.69 1.45,137.32 -66.84,137.32" /><path
         id="path56"
         style="fill:#ffffff;fill-opacity:1;fill-rule:nonzero;stroke:none"
         d="m 1576.13,1943.07 c 20.6,0 39.6,-7.6 59.38,-23.16 96.49,-34.62 209.55,-25.98 209.37,-61.52 -0.19,-35.54 -29.48,-61.68 -56.55,-72.91 -27.3,-12.88 -57.48,-17.87 -88.73,-17.87 -100.1,0 -210.62,54.24 -275.58,60 10.86,39.04 74.3,92.32 112.05,107.05 14.31,5.58 27.48,8.41 40.06,8.41" /><path
         id="path58"
         style="fill:#ffffff;fill-opacity:1;fill-rule:nonzero;stroke:none"
         d="m 1238.35,457.52 c 23.22,7.468 26.08,20.21 26.23,54.812 l 0.54,121.969 c 0.16,35.5 -2.59,44.91 -25.74,32.371 l -33.66,-21.152 -1.13,-198.872 z m -115.32,214.429 132.23,98.539 c 70.73,45.332 88.84,25.543 88.51,-82.597 l -0.5,-161.231 c -0.33,-107.148 -18.74,-143.691 -89.88,-159.609 l -49.31,-11.031 -4.34,-218.59 -79.85,0.699 3.14,533.82" /><path
         id="path60"
         style="fill:#ffffff;fill-opacity:1;fill-rule:nonzero;stroke:none"
         d="m 1502.68,352.73 c 0.06,66.711 -12.6,86.29 -60.38,137.149 -53.33,52 -72.22,80.543 -71.96,178.301 l 0.1,38.289 c 0.3,110.863 18.6,154.863 89.33,200.519 l 33.62,21.703 c 70.74,45.668 88.94,18.883 88.94,-113.57 V 698.32 l -74.46,-31.449 0.08,93.078 c 0.04,44.289 -2.76,56.371 -25.2,44.102 l -8.41,-4.59 c -23.15,-12.652 -25.27,-26.762 -25.34,-66.75 l -0.04,-25.922 c -0.09,-63.758 12.53,-79.16 60.25,-126.84 53.42,-60.711 73.12,-95.969 73.12,-212.769 v -65.02 c 0,-132.449 -19.07,-164.801 -89.74,-164.172 l -33.92,0.301 c -71.37,0.633 -89.67,28.012 -89.37,138.871 l 0.31,117.91 73.97,16.68 L 1443.4,302 c -0.07,-41.98 2.02,-54.719 25.31,-52.762 l 9.18,0.774 c 22.58,1.898 24.71,15.648 24.75,59.758 l 0.04,42.96" /><path
         id="path62"
         style="fill:#ffffff;fill-opacity:1;fill-rule:nonzero;stroke:none"
         d="M 1656.92,138.359 V 824.82 l -51.03,33.86 V 985.125 L 1784.83,845.73 v -105.8 l -51.03,33.871 V 137.602 l -76.88,0.757" /><path
         id="path64"
         style="fill:#ffffff;fill-opacity:1;fill-rule:nonzero;stroke:none"
         d="m 1884.83,275.922 c 0,-35.012 2.04,-46.031 24.49,-48.75 l 10.89,-1.313 c 22.44,-2.718 24.49,7.02 24.49,39.473 v 455.84 l 72.11,-56.184 V 241.281 c 0,-82.793 -13.27,-101.82 -81.98,-101.031 l -35.37,0.398 c -68.71,0.793 -91.51,26.102 -91.51,134.133 v 552.918 l 76.88,-59.89 V 275.922" /></g></g></svg>
