<?xml version="1.0" encoding="UTF-8" standalone="no"?>
<svg
   xmlns:dc="http://purl.org/dc/elements/1.1/"
   xmlns:cc="http://creativecommons.org/ns#"
   xmlns:rdf="http://www.w3.org/1999/02/22-rdf-syntax-ns#"
   xmlns:svg="http://www.w3.org/2000/svg"
   xmlns="http://www.w3.org/2000/svg"
   viewBox="0 0 1785.16 1785.4667"
   height="1785.4667"
   width="1785.16"
   xml:space="preserve"
   id="svg2"
   version="1.1"><metadata
     id="metadata8"><rdf:RDF><cc:Work
         rdf:about=""><dc:format>image/svg+xml</dc:format><dc:type
           rdf:resource="http://purl.org/dc/dcmitype/StillImage" /></cc:Work></rdf:RDF></metadata><defs
     id="defs6" /><g
     transform="matrix(1.3333333,0,0,-1.3333333,0,1785.4667)"
     id="g10"><g
       transform="scale(0.1)"
       id="g12"><path
         id="path14"
         style="fill:#c10000;fill-opacity:1;fill-rule:nonzero;stroke:none"
         d="m 9864.91,7500.56 819.49,235.54 2112.9,-915.69 v 646.29 l -2112.9,1021.96 -820.17,-263.1 0.68,-725" /><path
         id="path16"
         style="fill:#c10000;fill-opacity:1;fill-rule:nonzero;stroke:none"
         d="M 11663.6,7074.09 10751,7455.34 V 5720.66 l 912.6,-274.29 v 1627.72" /><path
         id="path18"
         style="fill:#c10000;fill-opacity:1;fill-rule:nonzero;stroke:none"
         d="m 10751,3733.89 912.6,-152.08 V 5213.77 L 10751,5472.36 V 3733.89" /><path
         id="path20"
         style="fill:#c10000;fill-opacity:1;fill-rule:nonzero;stroke:none"
         d="m 12581.6,6692.89 -796.2,331.91 V 5410.34 l 796.2,-239.22 v 1521.77" /><path
         id="path22"
         style="fill:#c10000;fill-opacity:1;fill-rule:nonzero;stroke:none"
         d="m 13388.7,6356.81 -702.2,292.44 V 5139.63 l 702.2,-210.75 v 1427.93" /><path
         id="path24"
         style="fill:#c10000;fill-opacity:1;fill-rule:nonzero;stroke:none"
         d="m 11785.4,3561.55 796.2,-132.52 v 1524.62 l -796.2,225.61 V 3561.55" /><path
         id="path26"
         style="fill:#c10000;fill-opacity:1;fill-rule:nonzero;stroke:none"
         d="m 12686.5,3411.37 702.2,-117.07 v 1430.36 l -702.2,198.72 V 3411.37" /><path
         id="path28"
         style="fill:#c10000;fill-opacity:1;fill-rule:nonzero;stroke:none"
         d="m 3735.93,5629.2 1.51,-2.53 c 0,0 2212.56,1782.91 2665.03,1958.66 27.06,-3.75 131.96,14 256.42,37.87 -65.34,43.1 -112.95,72.32 -138.29,84.21 -110.99,52.07 -192.97,60.98 -296.76,72.28 -142.2,15.47 -319.17,34.73 -605.71,173.15 -434.04,209.71 -1164.45,878.7 -1584.99,1355.37 -52.42,-29.62 -87.76,-165.21 -150.31,-217.25 L 2523.22,8223.53 3735.93,7791.17 V 5629.2" /><path
         id="path30"
         style="fill:#c10000;fill-opacity:1;fill-rule:nonzero;stroke:none"
         d="M 3933.66,9626.18 C 4277.41,9162.77 5198.08,8294.7 5672.55,8065.47 6147.02,7836.24 6276.6,7960.04 6573.72,7820.65 6870.84,7681.27 9598.41,5626.67 9598.41,5626.67 v 1547.39 144.81 107.09 l 95.41,27.36 v 721.26 106.05 76.97 l 754.18,247 -1434.44,724.66 c -116.02,58.62 -210.62,149.6 -277.14,259.51 -192.66,-66.82 -399.5,-117.12 -627.45,-129.18 -250.37,0 -455.69,83.53 -549.23,223.44 -52.9,79.12 -66.54,171.95 -39.92,265.2 -14.4,-0.9 -29.07,-2.33 -43.04,-2.33 -258.5,0 -459.95,142.6 -538.89,381.5 -39.94,120.9 -38.55,239.7 -2.65,325.9 -121.85,39.1 -226.06,151.1 -278.27,309.1 -66.6,201.6 -26.61,393.5 101.91,488.8 36.96,27.4 114.99,67.2 219.66,114.4 -120.79,39.9 -221.91,130.3 -274.08,253.2 -63.01,148.3 -38.2,306.7 64.75,413.4 17.53,18.2 41.97,40.6 72.47,66.9 -178.98,42.5 -354.25,95.2 -519.08,145.2 -38.04,11.6 -75.52,22.9 -112.63,34 -154.67,42.5 -294.65,76.8 -410.78,96.8 -57.3,8.5 -111.18,16.5 -162.29,24.1 l -1.63,0.1 0.03,0.1 c -188.39,27.9 -329.37,48.9 -378.64,56.1 -17.16,2.6 -36.14,3.8 -56.53,3.8 -238.19,0 -674.33,-167.2 -789.99,-354.9 -125.55,-203.9 193.45,-410 1.1,-635.8 -226.89,-29.9 -570.11,-201.4 -460.73,-535.4 158.91,-214.3 166.96,-374.4 166.96,-374.4 -406.93,-49.8 -330.07,-436.5 -176.85,-657 79.45,-107.1 -218.84,-189.99 -6.96,-475.62" /><path
         id="path32"
         style="fill:#c10000;fill-opacity:1;fill-rule:nonzero;stroke:none"
         d="m 9184.54,11435 c -21.18,-10.3 -73.04,-35.2 -96.97,-43 -388.82,-127.3 -1946.97,-722.5 -2013.1,-747.8 0,0 -24.54,-6.5 -43.87,-7.1 -94.19,-165.8 32.72,-681.02 572.94,-585.7 264.04,56.5 1128.51,370.7 1168.48,388.1 169.55,73.9 321.6,144.5 443.94,199.1 337.7,150.6 279.76,773.5 -29.11,797.5 l -2.31,-1.1" /><path
         id="path34"
         style="fill:#c10000;fill-opacity:1;fill-rule:nonzero;stroke:none"
         d="m 9192.91,10483.1 c -22.53,3.3 -86.68,-11.4 -176.4,-37.5 -244.51,-120.1 -996.33,-381.5 -1320.68,-468.11 -20.81,-6.55 -35.54,-10.87 -41.64,-12.03 -16.84,-6.18 -28.68,-10.45 -33.38,-11.99 -99.07,-239.54 171.5,-418.58 544.71,-398.54 288.33,20.05 694.48,183.06 894.88,248.68 200.4,65.63 256.88,661.09 132.51,679.49" /><path
         id="path36"
         style="fill:#c10000;fill-opacity:1;fill-rule:nonzero;stroke:none"
         d="m 8719.67,12137.4 -1.75,-0.8 -3.16,-1.2 c -263.65,-100.3 -1759.88,-638.6 -1899.99,-759.5 -204.39,-151.6 -54.48,-645.1 214.79,-645.1 3.73,0 7.65,0.9 11.43,1.1 68.23,26 1626.49,621.3 2017.38,749.3 20.41,6.6 85.09,38.2 85.09,38.2 265.87,238.9 59.23,653.8 -293.97,664.7 0,0 -48.54,-17.3 -129.82,-46.7" /><path
         id="path38"
         style="fill:#c10000;fill-opacity:1;fill-rule:nonzero;stroke:none"
         d="m 8447.87,12861 c -1.41,-267.1 -217.37,-451.3 -401.88,-527.8 -166.56,-78.7 -359.01,-117.7 -584.87,-117.7 -166.76,0 -336.34,23.6 -503.88,58.2 -53.08,-43.4 -95.17,-80.3 -120.51,-106.6 -176.9,-183.4 -11.26,-530.4 280.12,-530.4 17.89,0 36.2,1.3 54.97,4 22.95,3.4 50.83,9.4 82.21,17.4 8.95,2.3 17.82,5.3 26.31,8.9 465.71,197.7 1114.82,447.2 1401.06,556.1 89.53,41.7 153.62,73.4 178.85,88.9 272.39,166.9 9.02,858.8 -418.05,858.8 -24.62,0 -49.72,-2.3 -75.35,-7.1 -45.48,-8.6 -111.62,-35.7 -189.85,-74.7 167.35,-42.6 271.53,-103.9 270.87,-228" /><path
         id="path40"
         style="fill:#c10000;fill-opacity:1;fill-rule:nonzero;stroke:none"
         d="m 8016.07,12405.4 c 169.31,70.2 352.45,233.7 353.62,456 1.17,222.3 -705.97,168.2 -1309.43,384.8 -123.73,97.3 -242.55,144.8 -371.41,144.8 -78.63,0 -161.01,-17.7 -250.49,-52.6 -236.1,-92.1 -632.85,-425.4 -700.83,-669.5 406.33,-36 1097.55,-375.2 1723.55,-375.2 195.51,0 384.24,31.1 554.99,111.7" /><path
         id="path42"
         style="fill:#c10000;fill-opacity:1;fill-rule:nonzero;stroke:none"
         d="m 4740.42,4442.84 c -0.96,-216.37 -18.87,-296.05 -164.05,-342.79 l -211.18,-67.99 7.07,1243.8 210.54,132.25 c 144.75,78.41 161.97,19.57 160.99,-202.42 z m -58.34,1614.58 -826.99,-616.29 -19.62,-3338.63 499.4,-4.4 27.15,1367.18 308.41,68.98 c 444.93,99.53 560.07,328.04 562.13,998.23 l 3.11,1008.32 c 2.08,676.34 -111.17,800.12 -553.59,516.61" /><path
         id="path44"
         style="fill:#c10000;fill-opacity:1;fill-rule:nonzero;stroke:none"
         d="m 6727.69,5606.05 v 730.5 c 0,828.41 -113.85,995.91 -556.27,710.31 L 5961.17,6911.14 C 5518.78,6625.57 5404.34,6350.35 5402.49,5657.03 l -0.64,-239.49 c -1.63,-611.38 116.53,-789.87 450.02,-1115.11 298.86,-318.1 378,-440.53 377.63,-857.77 L 6229.26,3176 c -0.24,-275.9 -13.55,-361.9 -154.8,-373.7 l -57.38,-4.9 c -145.65,-12.2 -158.76,67.4 -158.33,330 l 1.12,686.37 -462.58,-104.32 -1.96,-737.45 c -1.85,-693.3 112.61,-864.5 558.96,-868.5 l 212.14,-1.9 c 441.98,-3.9 561.26,198.4 561.26,1026.8 v 406.65 c 0,730.5 -123.19,950.99 -457.33,1330.69 -298.48,298.2 -377.42,394.49 -376.8,793.26 l 0.26,162.16 c 0.39,250.11 13.72,338.36 158.45,417.45 l 52.6,28.73 c 140.35,76.69 157.87,1.16 157.63,-275.78 l -0.48,-582.19 465.67,196.68" /><path
         id="path46"
         style="fill:#c10000;fill-opacity:1;fill-rule:nonzero;stroke:none"
         d="m 7674.98,2099.2 v 3978.92 l 319.13,-211.81 v 661.66 l -1119.05,871.85 v -790.78 l 319.13,-211.82 V 2103.9 l 480.79,-4.7" /><path
         id="path48"
         style="fill:#c10000;fill-opacity:1;fill-rule:nonzero;stroke:none"
         d="M 8138.77,6415.27 V 2957.2 c 0,-675.7 142.55,-833.9 572.27,-838.9 l 221.25,-2.5 c 429.72,-5 512.72,114.1 512.72,631.8 v 2649.99 l -450.99,351.36 V 2898 c 0,-202.9 -12.8,-263.8 -153.21,-246.8 l -68.08,8.2 c -140.41,17 -153.16,85.9 -153.16,304.9 v 3076.39 l -480.8,374.58" /><path
         id="path50"
         style="fill:#c10000;fill-opacity:1;fill-rule:nonzero;stroke:none"
         d="m 3583.42,7314.83 v 355.78 L 2372.48,8120.06 806.035,7387.37 v -346.7 l 1566.575,703.87 1210.81,-429.71" /><path
         id="path52"
         style="fill:#c10000;fill-opacity:1;fill-rule:nonzero;stroke:none"
         d="M 2059.1,6658.39 910.496,6218.19 v 433.21 l 1148.604,479 z m 0,-705.71 -1148.604,-382.75 v 432.12 L 2059.1,6423.09 Z m 0,-704.96 L 910.496,4922.37 V 5355 L 2059.1,5718.7 Z m 0,-703.84 -1148.604,-268.06 v 432.13 L 2059.1,5014.3 Z m 0,-707.21 L 910.496,3626.2 v 432.85 L 2059.1,4307.88 Z m 0,-703.67 -1148.604,-153.2 v 430.34 L 2059.1,3601.46 Z m 0,-705.9 -1148.604,-95.7 v 433 L 2059.1,2898.5 Z M 396.793,4985.32 124.867,4903.36 v 405.81 l 271.926,90.89 z m 0,-622.42 -271.926,-68.07 v 405.9 l 271.926,76.77 z m 0,-622.16 -271.926,-54.51 v 405.58 l 271.926,63.73 z m 0,-622.14 -271.926,-41.2 v 405.62 l 271.926,50.17 z m 0,-622.7 -271.926,-27.1 v 405.6 l 271.926,36.4 z m 0,-546.7 H 124.867 v 316.4 l 271.926,23.3 z M 12686.5,3195.4 V 1949.2 h -104.9 v 1262 l -796.2,119.6 V 1949.2 h -121.8 v 333.5 1066.4 L 10751,3485.96 V 2350 1994.8 1949.2 h -125.3 V 7455.34 L 9786.92,7224.12 9779.59,1949.2 H 3583.42 V 7179.39 L 2449.71,7521.65 V 1949.2 H 2311.12 V 7477.1 L 710.195,6783.04 V 1949.2 H 602.09 V 5669.01 L 0,5457.93 v -3508.73 0 C -1.28125,873.102 870.758,0 1946.91,0 h 9494.89 c 1075.2,0 1946.9,871.699 1946.9,1946.9 v 1143.3 l -702.2,105.2" /></g></g></svg>
